<svg width="14" height="14" viewBox="0 0 14 14" fill="none" xmlns="http://www.w3.org/2000/svg">
<path d="M9.91663 1.16666H4.08329C2.47246 1.16666 1.16663 2.47249 1.16663 4.08332V9.91666C1.16663 11.5275 2.47246 12.8333 4.08329 12.8333H9.91663C11.5275 12.8333 12.8333 11.5275 12.8333 9.91666V4.08332C12.8333 2.47249 11.5275 1.16666 9.91663 1.16666Z" fill="white"/>
<path d="M9.33333 6.63249C9.40532 7.11797 9.32239 7.61379 9.09635 8.04942C8.87031 8.48505 8.51266 8.83832 8.07427 9.05897C7.63589 9.27962 7.13909 9.35642 6.65453 9.27845C6.16998 9.20048 5.72235 8.97171 5.37531 8.62467C5.02828 8.27763 4.7995 7.83 4.72153 7.34545C4.64356 6.8609 4.72036 6.3641 4.94102 5.92571C5.16167 5.48732 5.51493 5.12967 5.95057 4.90363C6.3862 4.67759 6.88202 4.59467 7.36749 4.66666C7.8627 4.74009 8.32115 4.97085 8.67515 5.32484C9.02914 5.67883 9.25989 6.13729 9.33333 6.63249Z" stroke="#FF2900" stroke-linecap="round" stroke-linejoin="round"/>
<path d="M10.2084 3.79166H10.2142" stroke="#FF2900" stroke-width="2" stroke-linecap="round" stroke-linejoin="round"/>
</svg>
