<svg width="14" height="14" viewBox="0 0 14 14" fill="none" xmlns="http://www.w3.org/2000/svg">
<path d="M9.33337 4.66666C10.2616 4.66666 11.1519 5.03541 11.8082 5.69178C12.4646 6.34816 12.8334 7.2384 12.8334 8.16666V12.25H10.5V8.16666C10.5 7.85724 10.3771 7.56049 10.1583 7.3417C9.93954 7.12291 9.64279 6.99999 9.33337 6.99999C9.02395 6.99999 8.72721 7.12291 8.50842 7.3417C8.28962 7.56049 8.16671 7.85724 8.16671 8.16666V12.25H5.83337V8.16666C5.83337 7.2384 6.20212 6.34816 6.8585 5.69178C7.51488 5.03541 8.40512 4.66666 9.33337 4.66666Z" fill="white"/>
<path d="M3.49996 5.25H1.16663V12.25H3.49996V5.25Z" fill="white"/>
<path d="M2.33329 3.49999C2.97762 3.49999 3.49996 2.97766 3.49996 2.33332C3.49996 1.68899 2.97762 1.16666 2.33329 1.16666C1.68896 1.16666 1.16663 1.68899 1.16663 2.33332C1.16663 2.97766 1.68896 3.49999 2.33329 3.49999Z" fill="white"/>
</svg>
