<svg width="13" height="11" viewBox="0 0 13 11" fill="none" xmlns="http://www.w3.org/2000/svg">
<path d="M12.8333 0.00586583C12.2747 0.399894 11.6562 0.701263 11.0017 0.898366C10.6503 0.494414 10.1834 0.208103 9.6641 0.0781561C9.14476 -0.0517906 8.59804 -0.0191034 8.09788 0.171797C7.59772 0.362697 7.16826 0.7026 6.86757 1.14553C6.56689 1.58847 6.40949 2.11306 6.41667 2.64837V3.2317C5.39154 3.25828 4.37574 3.03092 3.45975 2.56988C2.54377 2.10883 1.75602 1.4284 1.16667 0.589199C1.16667 0.589199 -1.16667 5.8392 4.08333 8.17253C2.88197 8.98801 1.45084 9.39691 0 9.3392C5.25 12.2559 11.6667 9.3392 11.6667 2.63087C11.6661 2.46838 11.6505 2.3063 11.62 2.1467C12.2154 1.55957 12.6355 0.818282 12.8333 0.00586583Z" fill="white"/>
</svg>
