<svg width="33" height="31" viewBox="0 0 33 31" fill="none" xmlns="http://www.w3.org/2000/svg">
<path d="M15.7929 3.78589V3.78693C15.776 3.81601 12.2955 9.81986 7.95067 17.1502C3.59532 24.4983 0 30.3813 0 30.3813L12.3315 30.3272L12.3323 30.327L12.3297 30.3366C18.3172 30.2206 23.7182 26.2841 25.3119 20.336C25.8102 18.4766 25.8853 16.6049 25.5964 14.8162C24.8043 9.54892 20.9149 5.26515 15.7929 3.78589Z" fill="white"/>
<path d="M22.6076 0V0.00104418C22.5907 0.0301228 19.1102 6.03398 14.7654 13.3643C10.41 20.7124 6.8147 26.5954 6.8147 26.5954L19.1461 26.5413L19.147 26.5411L19.1444 26.5507C25.1319 26.4347 30.5329 22.4982 32.1266 16.5501C32.6249 14.6907 32.7 12.819 32.4111 11.0303C31.619 5.76303 27.7296 1.47926 22.6076 0Z" fill="#10F2C5"/>
</svg>
