<svg width="40" height="40" viewBox="0 0 40 40" fill="none" xmlns="http://www.w3.org/2000/svg">
<rect x="1.74846e-06" width="40" height="40" rx="12" fill="#171717" fill-opacity="0.05"/>
<path d="M26.0423 19.3609C26.7418 18.8554 26.8732 17.9121 26.3357 17.2541C25.7983 16.5961 24.7954 16.4726 24.0959 16.9781L19.0294 20.6397C18.3298 21.1453 18.1985 22.0885 18.7359 22.7465C19.2734 23.4045 20.2762 23.5281 20.9758 23.0225L26.0423 19.3609Z" fill="#3A3A3C"/>
<path d="M15.9022 16.9829C15.202 16.4782 14.1993 16.603 13.6627 17.2616C13.1261 17.9202 13.2588 18.8633 13.959 19.368L19.0304 23.0236C19.7306 23.5283 20.7333 23.4036 21.2699 22.7449C21.8065 22.0863 21.6738 21.1432 20.9736 20.6385L15.9022 16.9829Z" fill="#3A3A3C"/>
</svg>
