<svg width="48" height="48" viewBox="0 0 48 48" fill="none" xmlns="http://www.w3.org/2000/svg">
<path d="M24.9199 45.5C24.5799 45.5 24.2399 45.5 23.8999 45.48C12.6999 44.98 3.3399 35.96 2.5599 24.96C1.8799 15.52 7.3399 6.7 16.1399 3C18.6399 1.96 19.9599 2.76 20.5199 3.34C21.0799 3.9 21.8599 5.2 20.8199 7.58C19.8999 9.7 19.4399 11.96 19.4599 14.28C19.4999 23.14 26.8599 30.66 35.8399 31.02C37.1399 31.08 38.4199 30.98 39.6599 30.76C42.2999 30.28 43.3999 31.34 43.8199 32.02C44.2399 32.7 44.7199 34.16 43.1199 36.32C38.8799 42.12 32.1399 45.5 24.9199 45.5ZM5.5399 24.74C6.2199 34.26 14.3399 42.06 24.0199 42.48C30.5999 42.8 36.8399 39.8 40.6799 34.56C40.9799 34.14 41.1199 33.84 41.1799 33.68C40.9999 33.66 40.6799 33.64 40.1799 33.74C38.7199 34 37.1999 34.1 35.6999 34.04C25.1399 33.62 16.4999 24.76 16.4399 14.32C16.4399 11.56 16.9799 8.9 18.0799 6.4C18.2799 5.96 18.3199 5.66 18.3399 5.5C18.1599 5.5 17.8399 5.54 17.3199 5.76C9.6999 8.96 4.9799 16.6 5.5399 24.74Z" fill="#292D32"/>
</svg>
