<svg width="87" height="90" viewBox="0 0 87 90" fill="none" xmlns="http://www.w3.org/2000/svg">
<path d="M43.4994 85.5017C37.2171 84.6997 31.6032 83.0958 26.6576 80.6898C21.7119 78.2838 17.5188 75.1427 14.0783 71.2663C10.6377 67.39 8.01389 62.8962 6.20673 57.7848C4.39958 52.6735 3.49733 47.0087 3.50001 40.7906C10.8516 41.5257 17.0671 42.8624 22.1464 44.8006C27.2256 46.7387 31.3532 49.4788 34.5291 53.021C37.705 56.5631 39.9934 60.9915 41.3942 66.306C42.795 71.6206 43.4968 78.0191 43.4994 85.5017ZM43.4994 51.7177C41.9623 49.3786 39.8744 47.0729 37.2359 44.8006C34.5973 42.5282 31.539 40.4564 28.0611 38.5851C28.462 35.7781 29.1304 32.8709 30.066 29.8634C31.0017 26.8559 32.1379 23.8993 33.4745 20.9934C34.8112 18.0875 36.3323 15.2965 38.0378 12.6206C39.7434 9.94457 41.5639 7.50517 43.4994 5.30236C45.4376 7.50784 47.2594 9.94724 48.965 12.6206C50.6706 15.2939 52.1904 18.0848 53.5243 20.9934C54.8583 23.9019 55.9945 26.8586 56.9328 29.8634C57.8711 32.8682 58.5395 35.7755 58.9378 38.5851C55.4625 40.3896 52.4056 42.428 49.767 44.7003C47.1284 46.9726 45.0393 49.3118 43.4994 51.7177ZM51.5194 83.8977C51.3857 79.2195 51.0355 74.8914 50.4687 70.9135C49.902 66.9356 49.0158 63.1769 47.8101 59.6374C50.9513 54.224 55.2794 49.813 60.7944 46.4045C66.3095 42.9961 73.8776 41.1247 83.4988 40.7906C83.5657 51.3502 80.7413 60.4568 75.0258 68.1105C69.3102 75.7642 61.4748 81.0266 51.5194 83.8977Z" stroke="#485C46" stroke-width="7"/>
</svg>
